<svg id="logo" xmlns="http://www.w3.org/2000/svg" xmlns:xlink="http://www.w3.org/1999/xlink" width="149.425" height="172.509" viewBox="0 0 149.425 172.509">
  <defs>
    <linearGradient id="linear-gradient" y1="0.5" x2="1" y2="0.5" gradientUnits="objectBoundingBox">
      <stop offset="0" stop-color="#534b78"/>
      <stop offset="0.635" stop-color="#3d3859"/>
      <stop offset="1" stop-color="#34304c"/>
    </linearGradient>
    <linearGradient id="linear-gradient-2" x1="-0.062" y1="0.789" x2="0.827" y2="0.194" gradientUnits="objectBoundingBox">
      <stop offset="0" stop-color="#f57e20"/>
      <stop offset="0.981" stop-color="#f4bd22"/>
    </linearGradient>
    <linearGradient id="linear-gradient-3" x1="0.001" y1="0.5" x2="1" y2="0.5" xlink:href="#linear-gradient-2"/>
    <linearGradient id="linear-gradient-4" x1="-0.41" y1="0.289" x2="0.385" y2="0.496" gradientUnits="objectBoundingBox">
      <stop offset="0" stop-color="#fff"/>
      <stop offset="1" stop-color="#fff" stop-opacity="0"/>
    </linearGradient>
    <linearGradient id="linear-gradient-5" x1="-0.566" y1="0.334" x2="0.316" y2="0.465" xlink:href="#linear-gradient-4"/>
    <linearGradient id="linear-gradient-6" x1="1.802" y1="0.556" x2="0.836" y2="0.518" xlink:href="#linear-gradient-4"/>
    <linearGradient id="linear-gradient-7" x1="1.406" y1="0.637" x2="0.743" y2="0.531" xlink:href="#linear-gradient-4"/>
    <linearGradient id="linear-gradient-8" x1="-0.405" y1="0.243" x2="0.112" y2="0.39" xlink:href="#linear-gradient-4"/>
    <linearGradient id="linear-gradient-9" x1="1.383" y1="0.622" x2="0.914" y2="0.557" xlink:href="#linear-gradient-4"/>
  </defs>
  <path id="Path_348" data-name="Path 348" d="M1.825-18.425H9.3a5.142,5.142,0,0,1,3.538,1.25q1.412,1.25,1.413,4.775,0,3.55-1.45,4.863A5.065,5.065,0,0,1,9.275-6.225q-.775,0-2.338-.1t-2.587-.2V0H1.825Zm7.1,9.95q2.8,0,2.8-3.9,0-3.8-2.65-3.8H4.35v7.7Zm8.125-9.95h7.375a5.206,5.206,0,0,1,3.587,1.188Q29.35-16.05,29.35-12.85a5.676,5.676,0,0,1-.937,3.675,4.7,4.7,0,0,1-2.388,1.5L29.7,0H27.15l-3.4-7.325-3.425-.05q-.275-.025-.75-.025V0H17.05ZM24.025-9.35a2.8,2.8,0,0,0,2.087-.75,3.925,3.925,0,0,0,.738-2.75,3.552,3.552,0,0,0-.75-2.625,2.922,2.922,0,0,0-2.075-.7h-4.45V-9.35ZM39.2.15a10.12,10.12,0,0,1-4.15-.7,4.649,4.649,0,0,1-2.312-2.7,16.918,16.918,0,0,1-.787-5.9,17,17,0,0,1,.8-5.937,4.808,4.808,0,0,1,2.325-2.762,9.738,9.738,0,0,1,4.125-.725,9.884,9.884,0,0,1,4.175.725,4.762,4.762,0,0,1,2.313,2.762,17.254,17.254,0,0,1,.788,5.938,16.918,16.918,0,0,1-.788,5.9,4.649,4.649,0,0,1-2.312,2.7A10.2,10.2,0,0,1,39.2.15Zm0-2.25a6.249,6.249,0,0,0,2.85-.525A3.158,3.158,0,0,0,43.5-4.65a16.768,16.768,0,0,0,.45-4.5,17.707,17.707,0,0,0-.45-4.65,3.087,3.087,0,0,0-1.437-2.025,6.506,6.506,0,0,0-2.862-.5,6.158,6.158,0,0,0-2.787.512,3.26,3.26,0,0,0-1.475,2.038A16.283,16.283,0,0,0,34.45-9.15a17.206,17.206,0,0,0,.438,4.513,3.126,3.126,0,0,0,1.425,2.013A6.3,6.3,0,0,0,39.2-2.1ZM50.9.15a7.781,7.781,0,0,1-1.55-.163A7.611,7.611,0,0,1,48-.4V-2.375a14.712,14.712,0,0,0,2.375.275,2.584,2.584,0,0,0,1.775-.537,2.451,2.451,0,0,0,.6-1.888v-13.9h2.5V-4.2A4.494,4.494,0,0,1,54.2-.875,4.578,4.578,0,0,1,50.9.15ZM62.875.1a5.016,5.016,0,0,1-2.8-.75q-1.15-.75-1.15-2.975v-10.95a3.607,3.607,0,0,1,1.1-2.938,4.016,4.016,0,0,1,2.65-.913q2.975,0,6.725.2l1.125.05V-16.1h-7.1a1.746,1.746,0,0,0-1.975,1.975V-10.3l7.95.15V-8.2l-7.95.175V-4.25A1.888,1.888,0,0,0,62-2.663a2.4,2.4,0,0,0,1.475.413h7.05V-.175Q66.225.1,62.875.1Zm16.9.05a8.068,8.068,0,0,1-3.763-.738,4.662,4.662,0,0,1-2.088-2.775,19.154,19.154,0,0,1-.7-5.913,17.6,17.6,0,0,1,.725-5.7,4.928,4.928,0,0,1,2.15-2.812,7.8,7.8,0,0,1,3.775-.788,20.033,20.033,0,0,1,2.8.212,23.839,23.839,0,0,1,2.65.513v1.9q-.8-.125-2.2-.25t-2.8-.125a5.476,5.476,0,0,0-2.737.563,3.378,3.378,0,0,0-1.413,2.075,16.539,16.539,0,0,0-.45,4.438,17.87,17.87,0,0,0,.425,4.512,3.309,3.309,0,0,0,1.375,2.075A5.526,5.526,0,0,0,80.3-2.1a34.837,34.837,0,0,0,5.025-.3V-.475A22.892,22.892,0,0,1,79.775.15ZM92.3-16.175H86.8v-2.25h13.525v2.25h-5.5V0H92.3Zm9.8-2.4h4.85v7.15h5.5v-7.15h4.85V0h-4.85V-7.075h-5.5V0H102.1ZM127.325.125A9.911,9.911,0,0,1,121.788-1.2Q119.8-2.525,119.8-6.125v-12.45h4.85V-6.15a1.649,1.649,0,0,0,.688,1.438,3.414,3.414,0,0,0,1.988.487,3.414,3.414,0,0,0,1.987-.487A1.649,1.649,0,0,0,130-6.15V-18.575h4.85v12.45q0,3.6-1.988,4.925A9.911,9.911,0,0,1,127.325.125Zm10.025-18.7h7.7q5.625,0,5.625,4.95a4.886,4.886,0,0,1-.637,2.637,3.046,3.046,0,0,1-1.913,1.338,3.923,3.923,0,0,1,2.263,1.512A4.971,4.971,0,0,1,151.25-5.1a4.809,4.809,0,0,1-1.437,3.9A6.742,6.742,0,0,1,145.425,0H137.35Zm7.65,7.3a.9.9,0,0,0,.8-.413,1.88,1.88,0,0,0,.275-1.062,1.665,1.665,0,0,0-.312-1.125.984.984,0,0,0-.763-.35h-2.8v2.95Zm.275,6.925a1.242,1.242,0,0,0,1.012-.437,1.8,1.8,0,0,0,.363-1.187,1.8,1.8,0,0,0-.363-1.187,1.242,1.242,0,0,0-1.012-.437H142.2v3.25Z" transform="translate(-1.825 172.359)" fill="#34304c"/>
  <g id="Group_198" data-name="Group 198" transform="translate(6.175)">
    <g id="Group_196" data-name="Group 196">
      <path id="Path_339" data-name="Path 339" d="M276.9,171.167l-49.654-49.654a18.053,18.053,0,0,0-25.581,0l-49.654,49.654a18.053,18.053,0,0,0,0,25.581L201.667,246.4a18.053,18.053,0,0,0,25.581,0L276.9,196.748a17.976,17.976,0,0,0,5.313-12.791A18.369,18.369,0,0,0,276.9,171.167ZM271,190.91l-49.654,49.654a9.818,9.818,0,0,1-13.906,0L157.785,190.91a9.9,9.9,0,0,1,0-13.906l49.654-49.654a9.818,9.818,0,0,1,13.906,0L271,177A9.779,9.779,0,0,1,271,190.91Z" transform="translate(-146.7 -109.81)" fill="url(#linear-gradient)"/>
      <path id="Path_340" data-name="Path 340" d="M286.009,143.2l.2,4.264c10.036-.066,11.216,8.593,9.839,15.546-2.624,13.447-14.955,21.514-35.486,38.831-8.921,7.543-16.923,20.662-7.412,36.8,3.739-7.609,15.218-16.529,33.059-31.944,17.251-14.955,23.154-23.548,23.613-37.847C310.344,155.4,301.489,144.709,286.009,143.2Z" transform="translate(-181.848 -119.1)" fill="url(#linear-gradient-2)"/>
      <path id="Path_341" data-name="Path 341" d="M237.05,166.831c-27.811,24.138-53.327,37.126-55.492,54.508-1.771,14.3,10.036,24.007,22.236,18.891l2.82,2.82c-19.547,10.364-48.342-6.166-44.866-35.223,3.28-27.418,32.862-44.21,61.461-66.118,15.218-11.676,22.17-19.743,17.907-27.221-2.23-3.87-8.789-5.051-15.873-.59a17.739,17.739,0,0,0-5.575-.918c12.4-10.626,25.909-6.3,31.681-.853C260.794,120.785,264.861,142.693,237.05,166.831Z" transform="translate(-151.779 -106.458)" fill="url(#linear-gradient-3)"/>
      <g id="Group_195" data-name="Group 195" transform="translate(11.994 2.192)">
        <path id="Path_342" data-name="Path 342" d="M254.513,236.248c-6.494-14.562,2.427-25.188,8.658-30.5,3.214-2.689,6.1-5.116,8.986-7.478,15.546-12.791,24.86-20.531,27.287-32.665.656-3.411,1.246-9.839-2.361-14.234a11.732,11.732,0,0,0-1.837-1.771c8.789,3.542,13.906,11.348,13.512,21.318-.459,13.184-5.575,21.252-22.892,36.207-3.083,2.689-5.969,5.116-8.658,7.412C266.516,223.786,258.711,230.41,254.513,236.248Z" transform="translate(-195.01 -123.494)" fill="url(#linear-gradient-4)"/>
        <path id="Path_343" data-name="Path 343" d="M195.168,244.987a30.687,30.687,0,0,1-22.433-10.3,31.992,31.992,0,0,1-7.478-25.45c2.624-21.974,23.023-36.863,46.637-54.18,4.591-3.345,9.314-6.822,14.037-10.429,15.349-11.741,23.745-20.859,18.5-30.173-1.574-2.82-4.854-4.526-8.724-4.592a17.807,17.807,0,0,1,1.9-.066,20.424,20.424,0,0,1,13.578,5.051c4.132,3.87,6.428,9.9,6.3,16.464-.131,7.937-3.87,20.465-20.662,34.961-8.134,7.084-16.267,13.25-23.351,18.76-17.448,13.381-31.222,24.007-32.862,37.191-.787,6.494.918,12.463,4.788,16.857a17.428,17.428,0,0,0,11.807,5.9Z" transform="translate(-164.985 -109.8)" fill="url(#linear-gradient-5)"/>
        <g id="Group_194" data-name="Group 194">
          <path id="Path_344" data-name="Path 344" d="M254.513,236.248c-6.494-14.562,2.427-25.188,8.658-30.5,3.214-2.689,6.1-5.116,8.986-7.478,15.546-12.791,24.86-20.531,27.287-32.665.656-3.411,1.246-9.839-2.361-14.234a11.732,11.732,0,0,0-1.837-1.771c8.789,3.542,13.906,11.348,13.512,21.318-.459,13.184-5.575,21.252-22.892,36.207-3.083,2.689-5.969,5.116-8.658,7.412C266.516,223.786,258.711,230.41,254.513,236.248Z" transform="translate(-195.01 -123.494)" fill="url(#linear-gradient-6)"/>
          <path id="Path_345" data-name="Path 345" d="M195.168,244.987a30.687,30.687,0,0,1-22.433-10.3,31.992,31.992,0,0,1-7.478-25.45c2.624-21.974,23.023-36.863,46.637-54.18,4.591-3.345,9.314-6.822,14.037-10.429,15.349-11.741,23.745-20.859,18.5-30.173-1.574-2.82-4.854-4.526-8.724-4.592a17.807,17.807,0,0,1,1.9-.066,20.424,20.424,0,0,1,13.578,5.051c4.132,3.87,6.428,9.9,6.3,16.464-.131,7.937-3.87,20.465-20.662,34.961-8.134,7.084-16.267,13.25-23.351,18.76-17.448,13.381-31.222,24.007-32.862,37.191-.787,6.494.918,12.463,4.788,16.857a17.428,17.428,0,0,0,11.807,5.9Z" transform="translate(-164.985 -109.8)" fill="url(#linear-gradient-7)"/>
        </g>
      </g>
    </g>
    <g id="Group_197" data-name="Group 197" transform="translate(1.837 8.227)">
      <path id="Path_346" data-name="Path 346" d="M276.553,173.442l-49.588-49.654a16.311,16.311,0,0,0-23.089,0l-49.588,49.654a16.311,16.311,0,0,0,0,23.089l49.654,49.654a16.311,16.311,0,0,0,23.089,0l49.654-49.654a16.169,16.169,0,0,0,4.788-11.544A16.858,16.858,0,0,0,276.553,173.442Zm-3.28,19.743L223.62,242.839a11.621,11.621,0,0,1-8.2,3.411,11.351,11.351,0,0,1-8.2-3.411l-49.654-49.654a11.679,11.679,0,0,1,0-16.464l49.654-49.654a11.737,11.737,0,0,1,8.2-3.411,11.351,11.351,0,0,1,8.2,3.411l49.654,49.654a11.621,11.621,0,0,1,3.411,8.2A11.774,11.774,0,0,1,273.274,193.186Z" transform="translate(-149.5 -119)" fill="url(#linear-gradient-8)"/>
      <path id="Path_347" data-name="Path 347" d="M276.553,173.442l-49.588-49.654a16.311,16.311,0,0,0-23.089,0l-49.588,49.654a16.311,16.311,0,0,0,0,23.089l49.654,49.654a16.311,16.311,0,0,0,23.089,0l49.654-49.654a16.169,16.169,0,0,0,4.788-11.544A16.858,16.858,0,0,0,276.553,173.442Zm-3.28,19.743L223.62,242.839a11.621,11.621,0,0,1-8.2,3.411,11.351,11.351,0,0,1-8.2-3.411l-49.654-49.654a11.679,11.679,0,0,1,0-16.464l49.654-49.654a11.737,11.737,0,0,1,8.2-3.411,11.351,11.351,0,0,1,8.2,3.411l49.654,49.654a11.621,11.621,0,0,1,3.411,8.2A11.774,11.774,0,0,1,273.274,193.186Z" transform="translate(-149.5 -119)" fill="url(#linear-gradient-9)"/>
    </g>
  </g>
</svg>
